<svg width="36" height="36" viewBox="0 0 36 36" fill="none" xmlns="http://www.w3.org/2000/svg">
<g filter="url(#filter0_d_6563_6493)">
<path fill-rule="evenodd" clip-rule="evenodd" d="M26.8847 28.9519C29.186 27.25 30.8922 24.8654 31.7604 22.1374C32.6287 19.4093 32.6147 16.4769 31.7207 13.7572C30.8266 11.0375 29.0979 8.66921 26.7806 6.98923C24.4632 5.30924 21.6753 4.40316 18.8134 4.39991H17.2141C13.6466 4.39631 10.2206 5.79524 7.67466 8.29512C5.12868 10.795 3.66663 14.1956 3.60368 17.7639C3.54074 21.3321 4.88194 24.7822 7.33816 27.3704C9.79438 29.9586 13.1689 31.4776 16.7342 31.5999H28.0899C28.3356 31.5771 28.5639 31.4629 28.7296 31.2799C28.8419 31.1051 28.8875 30.8958 28.8581 30.6901C28.8288 30.4845 28.7264 30.2962 28.5697 30.1599L26.8847 28.9519ZM13 18C13 19.1046 12.1046 20 11 20C9.89543 20 9 19.1046 9 18C9 16.8954 9.89543 16 11 16C12.1046 16 13 16.8954 13 18ZM20 18C20 19.1046 19.1046 20 18 20C16.8954 20 16 19.1046 16 18C16 16.8954 16.8954 16 18 16C19.1046 16 20 16.8954 20 18ZM27 18C27 19.1046 26.1046 20 25 20C23.8954 20 23 19.1046 23 18C23 16.8954 23.8954 16 25 16C26.1046 16 27 16.8954 27 18Z" fill="white"/>
</g>
<defs>
<filter id="filter0_d_6563_6493" x="1.60156" y="4.3999" width="32.7969" height="31.2002" filterUnits="userSpaceOnUse" color-interpolation-filters="sRGB">
<feFlood flood-opacity="0" result="BackgroundImageFix"/>
<feColorMatrix in="SourceAlpha" type="matrix" values="0 0 0 0 0 0 0 0 0 0 0 0 0 0 0 0 0 0 127 0" result="hardAlpha"/>
<feOffset dy="2"/>
<feGaussianBlur stdDeviation="1"/>
<feComposite in2="hardAlpha" operator="out"/>
<feColorMatrix type="matrix" values="0 0 0 0 0 0 0 0 0 0 0 0 0 0 0 0 0 0 0.15 0"/>
<feBlend mode="normal" in2="BackgroundImageFix" result="effect1_dropShadow_6563_6493"/>
<feBlend mode="normal" in="SourceGraphic" in2="effect1_dropShadow_6563_6493" result="shape"/>
</filter>
</defs>
</svg>
